<?xml version="1.0" standalone="no"?>
<!DOCTYPE svg PUBLIC "-//W3C//DTD SVG 20010904//EN"
 "http://www.w3.org/TR/2001/REC-SVG-20010904/DTD/svg10.dtd">
<svg version="1.0" xmlns="http://www.w3.org/2000/svg"
 width="3025.000000pt" height="3025.000000pt" viewBox="0 0 3025.000000 3025.000000"
 preserveAspectRatio="xMidYMid meet">
<metadata>
Created by potrace 1.11, written by Peter Selinger 2001-2013
</metadata>
<g transform="translate(0.000000,3025.000000) scale(0.100000,-0.100000)"
fill="#000000" stroke="none">
<path d="M2968 30218 c11 -18 55 -91 97 -163 43 -71 93 -153 111 -182 19 -28
34 -54 34 -57 0 -3 12 -24 28 -48 15 -24 32 -52 38 -63 7 -11 306 -509 665
-1107 360 -598 677 -1125 704 -1172 28 -46 228 -379 445 -740 217 -361 400
-664 405 -674 6 -9 23 -40 40 -67 16 -28 36 -62 45 -76 8 -15 44 -75 80 -133
87 -142 104 -170 145 -241 20 -33 41 -69 48 -79 61 -99 77 -126 77 -136 0 -5
5 -10 10 -10 6 0 10 -5 10 -11 0 -6 13 -29 29 -52 15 -23 30 -47 32 -52 2 -6
83 -141 179 -300 96 -160 181 -302 190 -316 8 -15 80 -134 158 -265 79 -132
181 -302 228 -379 46 -77 89 -149 96 -160 215 -357 1377 -2292 1393 -2320 13
-22 41 -69 63 -105 39 -64 498 -825 517 -858 6 -9 66 -111 135 -225 69 -114
130 -215 135 -225 26 -44 137 -229 145 -242 6 -8 53 -87 105 -175 52 -88 99
-167 105 -175 24 -39 155 -257 164 -274 6 -11 15 -25 19 -30 7 -10 59 -97 97
-161 9 -16 205 -343 435 -725 230 -382 425 -707 434 -722 9 -15 105 -177 215
-359 164 -273 201 -329 211 -317 10 10 547 895 609 1003 20 34 166 277 207
344 21 34 39 65 39 67 0 3 12 23 27 47 14 23 159 263 321 532 162 270 304 506
316 525 35 55 87 141 114 190 13 25 30 52 37 60 6 8 25 38 41 65 15 28 35 62
44 76 8 15 98 165 200 333 201 333 207 344 237 396 26 44 760 1263 835 1386
l56 92 -71 118 c-39 66 -149 250 -245 409 -96 160 -183 304 -192 320 -10 17
-253 422 -540 900 -287 479 -530 884 -540 900 -9 17 -77 129 -150 250 -73 121
-141 234 -150 250 -10 17 -68 113 -129 213 -61 101 -111 186 -111 188 0 2 -17
30 -37 61 -21 32 -43 67 -49 78 -6 11 -93 157 -194 325 -100 168 -191 319
-201 337 -10 17 -31 51 -46 75 -15 24 -30 48 -33 53 -3 6 -81 138 -175 293
-93 155 -179 297 -190 316 -11 18 -65 108 -120 200 -55 91 -107 179 -116 194
-9 15 -251 419 -539 897 -287 479 -528 879 -534 890 -14 25 -208 348 -293 488
-35 56 -66 109 -70 117 -3 8 -19 34 -35 57 -15 23 -28 44 -28 46 0 3 -37 65
-81 138 -45 74 -91 149 -101 167 l-20 32 -3090 0 -3090 0 20 -32z"/>
<path d="M21117 30243 c-119 -196 -354 -586 -367 -608 -10 -16 -151 -250 -313
-520 -163 -269 -360 -596 -437 -725 -78 -129 -206 -341 -284 -470 -78 -129
-270 -449 -428 -710 -240 -399 -680 -1128 -737 -1222 -34 -56 -86 -143 -91
-153 -9 -18 -71 -119 -101 -165 -16 -25 -32 -51 -35 -59 -4 -7 -101 -169 -216
-359 -114 -189 -208 -349 -208 -353 0 -5 -4 -9 -10 -9 -5 0 -10 -5 -10 -11 0
-6 -8 -23 -19 -37 -10 -15 -28 -43 -38 -62 -37 -66 -592 -985 -600 -995 -5 -5
-12 -17 -16 -25 -4 -8 -13 -24 -20 -35 -7 -11 -35 -58 -62 -103 -28 -46 -58
-96 -67 -110 -10 -15 -21 -34 -25 -42 -3 -8 -21 -37 -38 -65 -18 -27 -48 -77
-67 -110 -26 -46 -206 -345 -297 -495 -215 -354 -351 -582 -351 -589 0 -5 -4
-11 -8 -13 -6 -2 -121 -188 -149 -240 -1 -3 63 -116 143 -249 81 -134 154
-256 163 -271 9 -15 187 -312 396 -659 209 -347 390 -648 401 -668 12 -20 95
-157 184 -306 90 -148 171 -283 180 -300 9 -16 54 -90 98 -164 45 -74 82 -138
82 -142 0 -5 4 -9 9 -9 5 0 11 -8 14 -17 4 -10 16 -35 29 -55 13 -20 52 -85
88 -145 35 -59 69 -116 75 -125 5 -9 22 -36 36 -60 14 -24 45 -73 67 -110 23
-37 42 -72 42 -78 0 -5 4 -10 8 -10 4 0 18 -19 30 -42 29 -55 29 -55 272 -458
113 -187 214 -355 225 -374 11 -18 137 -228 279 -465 224 -372 261 -429 271
-414 7 10 93 153 192 318 100 165 292 485 428 710 137 226 255 422 264 438 9
15 99 165 201 333 102 168 196 325 210 349 14 23 80 134 148 246 68 112 181
301 252 419 71 118 134 222 140 230 5 8 19 31 30 50 11 19 29 49 39 65 81 134
306 508 410 680 69 116 129 212 133 213 5 2 8 8 8 13 0 5 83 146 185 315 102
168 185 309 185 314 0 5 3 10 8 12 6 2 89 137 142 230 13 24 119 198 145 239
5 9 20 34 32 55 13 22 34 57 47 79 14 22 36 58 49 80 13 22 169 281 347 575
178 294 369 611 424 703 56 93 245 407 421 698 176 291 327 542 336 557 32 54
905 1503 958 1589 33 55 189 314 217 362 12 20 73 122 136 226 136 223 776
1284 923 1530 56 94 162 269 235 390 73 121 140 232 149 247 9 15 50 82 91
150 41 68 80 132 86 143 6 11 71 119 144 240 73 121 140 232 149 247 9 15 54
90 100 165 46 76 93 153 103 171 l20 32 -3090 0 c-1700 0 -3093 -3 -3095 -7z"/>
<path d="M15044 20129 c-43 -73 -89 -148 -101 -168 -48 -79 -73 -124 -73 -131
0 -5 -3 -10 -7 -12 -8 -3 -73 -105 -73 -114 0 -2 -20 -35 -45 -74 -25 -39 -45
-72 -45 -75 0 -2 -16 -29 -35 -59 -19 -29 -31 -56 -28 -60 4 -3 1 -6 -5 -6 -6
0 -21 -19 -33 -42 -12 -24 -25 -45 -29 -48 -4 -3 -9 -10 -11 -16 -3 -8 -189
-319 -277 -462 -12 -20 -32 -56 -44 -79 -12 -24 -26 -43 -30 -43 -4 0 -8 -4
-8 -9 0 -4 -45 -82 -100 -172 -55 -90 -103 -171 -107 -179 -3 -8 -19 -34 -35
-57 -16 -24 -26 -43 -23 -43 3 0 1 -6 -5 -12 -19 -22 -79 -118 -74 -118 3 0
-3 -12 -14 -27 -11 -16 -61 -98 -112 -183 -51 -85 -99 -162 -107 -171 -7 -9
-10 -19 -6 -22 3 -4 1 -7 -5 -7 -7 0 -12 -4 -12 -9 0 -9 -112 -198 -130 -218
-5 -7 -10 -14 -10 -17 0 -9 -105 -181 -112 -184 -5 -2 -8 -7 -8 -12 0 -12
-103 -184 -112 -188 -5 -2 -8 -8 -8 -13 0 -9 -33 -66 -78 -135 -6 -10 -18 -30
-24 -44 -7 -14 -15 -27 -18 -30 -6 -6 -20 -29 -66 -110 -21 -36 -40 -67 -43
-70 -3 -3 -11 -14 -17 -25 -29 -53 -40 -70 -46 -75 -3 -3 -8 -12 -10 -20 -2
-8 -10 -22 -18 -31 -8 -10 -26 -39 -40 -66 -14 -26 -28 -52 -33 -58 -17 -23
-53 -82 -67 -110 -8 -16 -18 -32 -21 -35 -5 -5 -33 -51 -98 -164 -13 -22 -27
-43 -30 -46 -3 -3 -15 -23 -26 -45 -11 -22 -24 -44 -28 -50 -5 -5 -18 -26 -30
-45 -11 -19 -36 -59 -54 -89 -18 -29 -33 -55 -33 -58 0 -2 -13 -24 -30 -48
-16 -24 -30 -46 -30 -48 0 -3 -37 -65 -82 -139 -45 -73 -86 -143 -92 -155 -6
-13 -14 -23 -18 -23 -5 0 -8 -4 -8 -9 0 -8 -199 -347 -230 -391 -31 -44 -107
-180 -102 -180 4 0 2 -4 -3 -8 -15 -10 -95 -139 -95 -152 0 -5 -4 -10 -9 -10
-5 0 -14 -12 -20 -27 -6 -16 -35 -67 -65 -115 -31 -49 -52 -88 -48 -88 4 0 2
-4 -3 -8 -9 -6 -23 -28 -93 -142 -9 -14 -15 -27 -13 -29 1 -2 -2 -7 -7 -10 -5
-3 -22 -28 -38 -56 -15 -27 -43 -75 -63 -105 -19 -30 -36 -57 -36 -60 0 -5 -7
-17 -51 -85 -10 -16 -25 -42 -34 -56 -12 -22 -147 -247 -193 -323 -7 -11 -28
-45 -47 -75 -19 -31 -35 -58 -35 -61 0 -3 -8 -16 -17 -30 -46 -71 -238 -394
-238 -402 0 -4 -4 -8 -10 -8 -5 0 -10 -4 -10 -9 0 -12 -133 -235 -142 -239 -5
-2 -8 -7 -8 -12 0 -5 -43 -79 -95 -165 -52 -86 -95 -160 -95 -166 0 -5 -4 -9
-10 -9 -5 0 -10 -4 -10 -9 0 -5 -16 -36 -36 -68 -19 -32 -40 -67 -47 -78 -7
-10 -23 -37 -37 -60 -13 -22 -35 -60 -48 -85 -14 -25 -30 -52 -37 -60 -11 -14
-65 -102 -90 -145 -11 -21 -66 -114 -88 -150 -7 -11 -24 -39 -39 -62 -16 -23
-28 -45 -28 -48 0 -4 -16 -30 -35 -59 -19 -29 -35 -58 -35 -65 0 -6 -4 -11
-10 -11 -5 0 -10 -4 -10 -10 0 -5 -22 -45 -50 -88 -27 -43 -50 -84 -50 -90 0
-7 -4 -12 -10 -12 -5 0 -10 -4 -10 -8 0 -4 -45 -82 -100 -173 -55 -90 -109
-180 -120 -199 -11 -19 -31 -53 -45 -75 -14 -22 -28 -47 -31 -55 -4 -8 -13
-22 -19 -30 -7 -8 -24 -35 -37 -60 -14 -25 -71 -120 -127 -212 -55 -92 -101
-171 -101 -177 0 -6 -4 -11 -8 -11 -5 0 -14 -10 -20 -22 -6 -13 -24 -44 -39
-70 -143 -240 -191 -319 -215 -355 -16 -24 -25 -43 -21 -43 4 0 3 -4 -3 -8
-12 -8 -194 -309 -194 -322 0 -4 -3 -10 -8 -12 -5 -2 -176 -279 -190 -309 -1
-3 -67 -113 -147 -245 -292 -485 -378 -628 -425 -709 -10 -16 -61 -101 -113
-188 -53 -86 -93 -157 -91 -157 3 0 -4 -10 -15 -21 -11 -12 -26 -33 -33 -48
-14 -28 -70 -122 -170 -286 -33 -55 -68 -113 -78 -130 -10 -16 -217 -361 -460
-765 -243 -404 -448 -744 -454 -755 -6 -11 -34 -57 -61 -103 -28 -45 -54 -90
-60 -100 -17 -29 -207 -346 -223 -372 -9 -14 -15 -27 -13 -29 1 -2 -1 -7 -6
-10 -7 -5 -462 -755 -553 -912 -12 -21 -121 -201 -181 -299 -72 -118 -139
-234 -139 -241 0 -5 -4 -9 -10 -9 -5 0 -10 -4 -10 -8 0 -5 -153 -263 -340
-573 -186 -310 -364 -607 -395 -659 -60 -101 -278 -465 -294 -490 -9 -13 -50
-80 -91 -150 -60 -99 -143 -238 -150 -250 -6 -8 -39 -64 -75 -125 -36 -60 -72
-119 -80 -130 -8 -10 -15 -23 -15 -27 0 -5 -5 -14 -11 -21 -8 -10 -125 -202
-189 -312 -9 -16 -36 -61 -60 -100 -24 -38 -51 -83 -60 -100 -9 -16 -83 -139
-163 -273 -81 -133 -147 -247 -147 -252 0 -4 -4 -10 -8 -12 -4 -1 -30 -41 -57
-88 -27 -47 -52 -87 -55 -90 -3 -3 -13 -20 -23 -38 l-18 -32 3092 2 3092 3
297 495 c164 272 353 587 420 700 68 113 133 221 145 240 19 29 280 464 341
566 11 18 51 84 89 148 39 64 75 124 80 134 6 9 123 204 260 432 137 228 256
427 265 442 8 14 65 107 125 207 61 99 115 189 120 198 8 15 678 1128 706
1173 5 8 48 80 95 160 111 185 107 179 184 307 36 59 67 113 69 118 2 6 7 12
11 15 4 3 20 28 34 55 15 28 41 70 57 95 16 25 32 51 35 59 4 8 78 131 165
275 173 286 343 568 374 622 11 19 56 94 100 167 44 72 94 155 110 183 92 158
410 681 420 692 9 10 44 -42 166 -245 85 -142 155 -264 157 -270 2 -7 7 -13
12 -13 5 0 10 -6 12 -13 2 -11 139 -242 256 -435 12 -20 25 -44 29 -52 4 -8
11 -19 15 -25 5 -5 112 -183 238 -395 126 -212 238 -398 249 -415 10 -16 28
-46 39 -65 17 -31 209 -353 232 -390 5 -8 26 -43 46 -77 33 -54 39 -60 49 -45
7 9 220 366 475 792 255 426 516 863 580 970 65 107 126 209 136 227 11 17 36
59 57 93 20 34 37 66 37 71 0 5 5 9 10 9 6 0 10 4 10 10 0 5 19 40 42 77 22
38 49 82 58 98 39 67 62 105 66 105 4 0 49 -68 70 -105 12 -22 605 -1008 672
-1119 23 -37 42 -72 42 -77 0 -5 3 -9 8 -9 4 0 13 -15 21 -32 8 -18 20 -40 27
-48 7 -8 19 -26 26 -40 7 -14 33 -58 58 -98 25 -40 50 -81 55 -90 6 -10 33
-55 61 -102 28 -47 61 -101 71 -120 17 -28 125 -208 163 -270 21 -35 256 -426
265 -442 6 -10 40 -67 77 -126 37 -60 76 -125 87 -145 11 -20 32 -55 48 -79
15 -24 28 -45 28 -48 0 -3 12 -23 26 -45 14 -22 181 -299 371 -615 190 -316
500 -831 688 -1145 189 -313 350 -582 359 -597 9 -15 95 -158 191 -318 96
-159 182 -302 191 -317 98 -166 902 -1500 908 -1506 4 -4 1396 -6 3093 -5
l3086 3 -34 55 c-18 30 -37 62 -41 70 -4 8 -25 44 -48 80 -23 36 -44 70 -46
75 -4 9 -111 188 -151 253 -9 15 -23 38 -31 52 -8 14 -33 56 -56 94 -24 38
-51 83 -61 100 -9 17 -176 294 -370 616 -194 322 -358 594 -364 605 -13 22
-101 170 -117 195 -30 49 -114 190 -129 215 -9 17 -36 62 -60 100 -24 39 -48
79 -54 90 -22 40 -251 420 -256 425 -3 3 -11 15 -17 28 -7 12 -19 32 -25 45
-7 12 -15 24 -18 27 -10 10 -41 65 -47 83 -3 9 -9 17 -14 17 -5 0 -9 4 -9 9 0
9 -99 180 -110 191 -10 9 -41 65 -47 83 -3 9 -9 17 -14 17 -5 0 -9 5 -9 11 0
6 -8 23 -19 37 -10 15 -28 43 -39 62 -70 125 -107 186 -112 190 -4 3 -9 10
-11 15 -4 10 -62 107 -91 153 -9 15 -23 38 -31 52 -7 14 -86 146 -175 293 -89
148 -162 271 -162 273 0 3 -5 10 -10 17 -14 16 -490 807 -498 827 -3 8 -8 17
-12 20 -9 7 -154 253 -158 268 -2 6 -8 12 -13 12 -5 0 -9 4 -9 8 0 8 -330 565
-347 587 -7 8 -217 358 -248 412 -49 87 -131 219 -137 221 -5 2 -8 8 -8 13 0
9 -38 73 -78 135 -7 10 -15 27 -18 36 -4 10 -10 18 -15 18 -5 0 -9 6 -9 14 0
7 -7 19 -15 26 -8 7 -12 16 -9 21 3 5 0 9 -5 9 -6 0 -11 6 -11 14 0 8 -3 16
-7 18 -5 2 -15 17 -24 33 -18 34 -223 376 -248 415 -9 14 -79 130 -156 257
-77 128 -148 245 -157 260 -9 16 -23 39 -31 53 -25 47 -42 75 -47 80 -7 7 -29
42 -36 58 -4 8 -31 53 -60 100 -29 48 -105 175 -169 282 -64 107 -194 324
-290 482 -95 159 -176 294 -179 300 -3 7 -14 25 -24 40 -9 15 -87 144 -171
285 -85 142 -159 260 -163 261 -4 2 -8 8 -8 13 0 6 -30 58 -66 117 -36 59 -70
116 -77 127 -6 11 -34 58 -63 105 -56 93 -250 417 -274 459 -9 14 -42 70 -75
124 -82 134 -103 169 -111 187 -4 8 -20 34 -36 57 -15 23 -28 44 -28 48 0 4
-13 26 -30 50 -16 24 -30 46 -30 50 0 3 -18 33 -40 66 -22 33 -40 62 -40 64 0
5 -247 417 -258 430 -4 6 -11 17 -15 25 -4 8 -13 24 -20 35 -7 11 -55 91 -107
178 -52 87 -103 170 -112 185 -10 15 -21 34 -25 42 -4 8 -29 50 -55 93 -26 43
-48 82 -48 87 0 5 -3 10 -7 12 -10 4 -233 377 -233 389 0 5 -4 9 -9 9 -5 0
-11 8 -15 18 -3 9 -19 37 -36 62 -16 25 -33 52 -37 60 -3 8 -42 73 -85 143
-43 71 -78 130 -78 131 0 3 -51 89 -249 416 -196 324 -287 477 -289 487 -2 7
-8 13 -13 13 -5 0 -9 4 -9 9 0 9 -59 110 -70 121 -3 3 -11 16 -18 30 -18 36
-64 114 -71 120 -6 5 -35 56 -55 97 -6 13 -14 23 -18 23 -5 0 -8 4 -8 9 0 4
-36 66 -79 137 -44 71 -89 148 -101 172 -12 23 -26 42 -31 42 -5 0 -9 5 -9 11
0 10 -78 148 -90 159 -3 3 -12 17 -20 32 -45 81 -123 210 -136 223 -9 8 -13
15 -9 15 3 0 -9 24 -28 53 -18 28 -36 59 -40 67 -4 8 -15 27 -25 42 -30 48
-207 342 -215 358 -4 8 -16 29 -27 45 -11 17 -27 44 -36 60 -9 17 -33 55 -53
85 -19 30 -36 57 -36 60 -4 18 -30 60 -37 60 -4 0 -8 5 -8 11 0 6 -16 34 -35
63 -19 29 -35 58 -35 65 0 6 -4 11 -10 11 -5 0 -10 4 -10 10 0 5 -29 57 -65
115 -36 57 -65 109 -65 115 0 5 -4 10 -10 10 -5 0 -10 7 -10 15 0 7 -6 18 -14
22 -8 4 -15 13 -15 18 -1 8 -62 115 -123 213 -9 15 -23 38 -31 52 -8 14 -74
124 -147 245 -73 121 -140 232 -147 248 -8 15 -19 27 -24 27 -5 0 -8 3 -7 8 2
9 -13 45 -22 52 -3 3 -21 32 -40 64 -18 33 -49 82 -67 110 -18 28 -33 54 -33
59 0 4 -5 13 -10 20 -18 20 -220 359 -220 368 0 5 -4 9 -10 9 -5 0 -10 4 -10
9 0 6 -42 79 -93 163 -51 84 -96 160 -100 168 -4 8 -27 47 -52 85 -24 39 -54
88 -66 110 -12 22 -24 42 -28 45 -7 5 -21 31 -53 91 -11 21 -24 42 -29 45 -5
3 -16 20 -24 37 -8 18 -26 50 -40 72 -14 22 -30 50 -35 63 -5 12 -14 22 -20
22 -6 0 -8 5 -5 10 3 6 2 10 -2 10 -5 0 -14 12 -21 28 -6 15 -23 45 -37 67
-32 52 -96 159 -113 191 -7 13 -17 24 -23 24 -5 0 -8 3 -7 8 2 4 -26 56 -62
116 -81 137 -89 150 -125 211 -16 28 -32 52 -35 55 -3 3 -11 16 -18 29 -58
102 -93 161 -97 161 -1 0 -38 -59 -81 -131z"/>
</g>
</svg>
